# xmcd
#
# Track frame offsets:
# 182
# 16380
# 29892
# 46545
# 70585
# 83722
# 96547
# 129545
# 156815
#
# Disc length: 2336 seconds
#
#
# Revision: 2
# Processed by: cddbd v1.5.2PL0 Copyright (c) Steve Scherf et al.
# Submitted via: FreeRIP 2.90 
#
DISCID=6e091e09
DTITLE=Vince Weber - The Boogie Man
DYEAR=1975
DGENRE=Boogie
TTITLE0=I'm the Boogie Man
TTITLE1=Chicago breakdown
TTITLE2=Dust my bedroom
TTITLE3=Another babe
TTITLE4=Talk to me, baby
TTITLE5=Mr. Pinetop's job
TTITLE6=Days began to drive down
TTITLE7=Boogie Woogie runner
TTITLE8=Roll'em Pete
EXTD=
EXTT0=
EXTT1=
EXTT2=
EXTT3=
EXTT4=
EXTT5=
EXTT6=
EXTT7=
EXTT8=
PLAYORDER=
